<?xml version="1.0" standalone="no"?>
<!DOCTYPE svg PUBLIC "-//W3C//DTD SVG 1.1//EN" "http://www.w3.org/Graphics/SVG/1.1/DTD/svg11.dtd" >
<!--
2013-9-30: Created.
-->
<svg>
<metadata>
Created by iconfont
</metadata>
<defs>

<font id="iconfont" horiz-adv-x="1024" >
  <font-face
    font-family="iconfont"
    font-weight="500"
    font-stretch="normal"
    units-per-em="1024"
    ascent="896"
    descent="-128"
  />
    <missing-glyph />
    
    <glyph glyph-name="x" unicode="x" horiz-adv-x="1001"
d="M281 543q-27 -1 -53 -1h-83q-18 0 -36.5 -6t-32.5 -18.5t-23 -32t-9 -45.5v-76h912v41q0 16 -0.5 30t-0.5 18q0 13 -5 29t-17 29.5t-31.5 22.5t-49.5 9h-133v-97h-438v97zM955 310v-52q0 -23 0.5 -52t0.5 -58t-10.5 -47.5t-26 -30t-33 -16t-31.5 -4.5q-14 -1 -29.5 -0.5
t-29.5 0.5h-32l-45 128h-439l-44 -128h-29h-34q-20 0 -45 1q-25 0 -41 9.5t-25.5 23t-13.5 29.5t-4 30v167h911zM163 247q-12 0 -21 -8.5t-9 -21.5t9 -21.5t21 -8.5q13 0 22 8.5t9 21.5t-9 21.5t-22 8.5zM316 123q-8 -26 -14 -48q-5 -19 -10.5 -37t-7.5 -25t-3 -15t1 -14.5
t9.5 -10.5t21.5 -4h37h67h81h80h64h36q23 0 34 12t2 38q-5 13 -9.5 30.5t-9.5 34.5q-5 19 -11 39h-368zM336 498v228q0 11 2.5 23t10 21.5t20.5 15.5t34 6h188q31 0 51.5 -14.5t20.5 -52.5v-227h-327z" />
    

    
    <glyph glyph-name="comiisshanchu" unicode="&#58972;" d="M924.587 558.279c-22.551 53.336-54.856 101.212-95.932 142.288s-88.952 73.38-142.288 95.932c-55.215 23.356-113.831 35.168-174.235 35.168-60.406 0-119.11-11.812-174.324-35.168-53.336-22.462-101.212-54.767-142.377-95.843-41.076-41.076-73.38-88.952-95.933-142.288-23.357-55.304-35.169-113.919-35.169-174.324 0-60.406 11.812-119.11 35.169-174.324 22.552-53.336 54.857-101.21 95.933-142.287 41.076-41.076 88.952-73.38 142.287-95.932 55.215-23.357 113.831-35.169 174.324-35.169 60.405 0 119.021 11.812 174.235 35.169 53.334 22.552 101.21 54.856 142.287 95.932 41.076 41.077 73.381 88.951 95.931 142.287 23.357 55.215 35.17 113.828 35.17 174.324 0.091 60.406-11.722 119.021-35.078 174.235zM696.927 194.596c0-0.088 0-0.088 0 0-12.438-12.438-32.573-12.438-45.011 0l-143.721 143.362-143.449-143.72c-12.439-12.439-32.575-12.439-45.013 0-12.438 12.438-12.528 32.575-0.089 45.102l143.45 143.719-143.808 143.362c-12.439 12.439-12.439 32.574 0 45.013v0c12.438 12.438 32.574 12.438 45.012 0l143.719-143.452 143.451 143.72c12.438 12.438 32.574 12.438 45.012 0 12.439-12.439 12.439-32.575 0-45.013l-143.361-143.629 143.718-143.451c12.529-12.439 12.529-32.663 0.090-45.013z"  horiz-adv-x="1024" />

    
    <glyph glyph-name="iconshengxu-copy" unicode="&#58892;" d="M774.873 492.281l-245.833 307.291c-8.738 10.923-25.341 10.923-34.079 0l-245.833-307.291c-11.433-14.272-1.238-35.462 17.039-35.462h173.015v-472.733c0-20.462 16.53-36.991 36.991-36.991h71.652c20.462 0 36.991 16.603 36.991 36.991v472.733h173.015c18.35 0 28.471 21.19 17.039 35.462z"  horiz-adv-x="1024" />

    
    <glyph glyph-name="shanchuguanbicha" unicode="&#59401;" d="M544 832C279.04 832 64 616.96 64 352S279.04-128 544-128 1024 87.04 1024 352 808.96 832 544 832zM544-64C314.24-64 128 122.24 128 352S314.24 768 544 768C773.76 768 960 581.76 960 352S773.76-64 544-64zM588.16 355.2l168.32 166.4c12.8 12.8 12.8 33.28 0 45.44-12.8 12.8-33.28 12.8-46.08 0L542.08 401.92 376.96 567.68c-12.8 12.8-33.28 12.8-45.44 0-12.8-12.8-12.8-33.28 0-45.44l164.48-165.76-174.72-172.8c-12.8-12.8-12.8-33.28 0-45.44 12.8-12.8 33.28-12.8 46.08 0l174.08 172.16 171.52-172.16c12.8-12.8 33.28-12.8 45.44 0 12.8 12.8 12.8 33.28 0 45.44L588.16 355.2z"  horiz-adv-x="1024" />

    
    <glyph glyph-name="rili" unicode="&#58930;" d="M441.6 216l0-145.6c0 0 0-0.8 0.8-0.8l145.6 0c0 0 0.8 0 0.8 0.8L588.8 216 441.6 216 441.6 216zM220.8 430.4C220 430.4 220 429.6 220.8 430.4l-0.8-145.6c0 0 0-0.8 0.8-0.8l145.6 0L366.4 429.6c0 0 0 0.8-0.8 0.8L220.8 430.4zM220 216l0-145.6c0 0 0-0.8 0.8-0.8l145.6 0c0 0 0.8 0 0.8 0.8L367.2 216 220 216 220 216zM814.4 680.8c26.4-2.4 49.6 18.4 49.6 44.8L864 839.2c0 28-25.6 50.4-54.4 44-21.6-4-36-24-36-56L773.6 728C772.8 704 790.4 682.4 814.4 680.8zM198.4 681.6c28.8-5.6 54.4 16 54.4 44L252.8 839.2c0 26.4-22.4 47.2-49.6 44.8-24-2.4-40.8-23.2-40.8-47.2l0-100C163.2 705.6 177.6 685.6 198.4 681.6zM917.6 773.6 917.6 773.6l0-43.2c0-52-38.4-98.4-90.4-102.4-59.2-5.6-108.8 41.6-108.8 99.2l0 45.6c0 0 0 0.8-0.8 0.8L308 773.6c0 0-0.8 0-0.8-0.8l0-42.4c0-52-38.4-98.4-90.4-102.4-59.2-5.6-108.8 41.6-108.8 99.2l0 45.6c0 0 0 0.8-0.8 0.8l0 0C48 773.6 0 725.6 0 665.6l0-684.8c0-55.2 44.8-99.2 99.2-99.2l825.6 0c54.4 0 99.2 44 99.2 99.2L1024 667.2C1024 726.4 976.8 773.6 917.6 773.6zM900.8 4c-20.8-20.8-46.4-23.2-53.6-23.2l-2.4 0L180-19.2c-44.8 0-80.8 36-80.8 80.8l0 472c0 0 0 0.8 0.8 0.8l824 0c0 0 0.8 0 0.8-0.8l0.8-475.2C924.8 46.4 920.8 23.2 900.8 4zM662.4 429.6l0-145.6c0 0 0-0.8 0.8-0.8L808 283.2c0 0 0.8 0 0.8 0.8L808.8 430.4 662.4 429.6C662.4 430.4 662.4 429.6 662.4 429.6zM662.4 216l0-145.6c0 0 0-0.8 0.8-0.8L808 69.6c0 0 0.8 0 0.8 0.8L808.8 216 662.4 216 662.4 216zM441.6 429.6l0-145.6c0 0 0-0.8 0.8-0.8l145.6 0c0 0 0.8 0 0.8 0.8L588.8 430.4 441.6 429.6C441.6 430.4 441.6 429.6 441.6 429.6z"  horiz-adv-x="1024" />

    
    <glyph glyph-name="qiyong" unicode="&#58983;" d="M506.860962-123.975812c-67.720932 0-133.429769 13.26889-195.300649 39.438258-59.748465 25.271618-113.401944 61.443765-159.47161 107.513431S69.845877 122.696999 44.575271 182.445463C18.405904 244.316343 5.136002 310.02518 5.136002 377.746112s13.26889 133.429769 39.438258 195.300649c25.271618 59.747452 61.443765 113.401944 107.513431 159.47161s99.723146 82.241814 159.47161 107.513431c61.87088 26.169368 127.579717 39.438258 195.300649 39.438258s133.430781-13.26889 195.301661-39.438258c59.747452-25.271618 113.401944-61.443765 159.47161-107.513431 46.068654-46.069666 82.240801-99.723146 107.512419-159.47161 26.168356-61.87088 39.438258-127.579717 39.438258-195.300649s-13.26889-133.429769-39.438258-195.301661C943.874023 122.696999 907.701875 69.044531 861.633221 22.974865c-46.069666-46.069666-99.723146-82.241814-159.47161-107.513431C640.291744-110.706922 574.581894-123.975812 506.860962-123.975812zM506.860962 828.865086c-248.747656 0-451.118973-202.371317-451.118973-451.117961 0-248.746644 202.371317-451.116949 451.118973-451.116949 248.746644 0 451.116949 202.370305 451.116949 451.116949C957.977911 626.493768 755.607606 828.865086 506.860962 828.865086zM409.734916 127.957997c-18.449931-13.156544-41.513103 3.287365-41.513103 29.610575L368.221812 566.176492c0 26.315113 23.063172 42.76712 41.513103 29.610575l286.453165-204.297381c19.920541-14.210161 19.920541-45.019086 0-59.226211L409.734916 127.957997 409.734916 127.957997zM409.734916 127.957997"  horiz-adv-x="1024" />

    
    <glyph glyph-name="tingyong2" unicode="&#58998;" d="M507.291257-126.976694c-68.469418 0-134.905526 13.415544-197.459211 39.875173-60.408835 25.550932-114.656343 62.123896-161.235195 108.702748-46.578852 46.579875-83.149768 100.82329-108.700701 161.231101C13.436522 245.389082 0.020978 311.824167 0.020978 380.292562c0 68.469418 13.415544 134.904503 39.875173 197.460234 25.550932 60.407812 62.122873 114.65532 108.701724 161.235195 46.578852 46.578852 100.825336 83.150792 161.235195 108.701724 62.554708 26.458605 128.989793 39.874149 197.459211 39.874149 68.470441 0 134.905526-13.415544 197.458187-39.875173 60.406788-25.550932 114.656343-62.122873 161.235195-108.701724 46.578852-46.579875 83.149768-100.82636 108.700701-161.235195 26.457582-62.554708 39.875173-128.989793 39.875173-197.459211 0-68.468394-13.415544-134.903479-39.875173-197.461257-25.550932-60.406788-62.121849-114.654296-108.700701-161.234171-46.579875-46.578852-100.825336-83.149768-161.235195-108.702748C642.197806-113.559103 575.760674-126.976694 507.291257-126.976694zM507.291257 836.39753C255.794315 836.39753 51.186288 631.790526 51.186288 380.292562c0-251.494894 204.608028-456.101899 456.104969-456.101899 251.495918 0 456.101899 204.607004 456.101899 456.101899C963.394179 631.790526 758.786151 836.39753 507.291257 836.39753zM675.113473 221.881692c0-5.196349-4.214998-9.410324-9.411347-9.410324L348.879364 212.471368c-5.197372 0-9.410324 4.213975-9.410324 9.410324L339.46904 538.705478c0 5.197372 4.212952 9.410324 9.410324 9.410324l316.822762 0c5.195326 0 9.410324-4.212952 9.410324-9.410324L675.11245 221.881692 675.113473 221.881692z"  horiz-adv-x="1024" />

    
    <glyph glyph-name="shipin" unicode="&#59182;" d="M1075.2 793.6 153.6 793.6C97.28 793.6 51.2 747.52 51.2 691.2l0-614.4c0-56.32 46.08-102.4 102.4-102.4l921.6 0c56.32 0 102.4 46.08 102.4 102.4L1177.6 691.2C1177.6 747.52 1131.52 793.6 1075.2 793.6zM788.48 337.92l-209.92-133.12c-35.84-25.6-71.68-10.24-71.68 35.84L506.88 527.36c0 46.08 30.72 61.44 71.68 35.84l209.92-133.12C829.44 404.48 829.44 363.52 788.48 337.92z"  horiz-adv-x="1229" />

    
    <glyph glyph-name="zhongzhi1" unicode="&#58922;" d="M868.592534 740.551602c-47.908126 48.03604-111.617124 74.433246-179.450045 74.433246-67.833945 0-131.541919-26.397207-179.3866-74.368778-48.03604-47.972595-74.495668-111.745037-74.433246-179.576935 0-46.004777 13.071713-89.598644 35.851533-128.178311L99.647511 61.333136c-24.811082-24.812105-24.811082-64.914452 0-89.725534 12.373819-12.373819 28.617781-18.59245 44.861744-18.59245 16.244986 0 32.489972 6.218632 44.862767 18.59245l119.04121 119.104655 74.116021-74.113975c12.373819-12.373819 28.617781-18.59245 44.861744-18.59245s32.487925 6.218632 44.861744 18.59245c24.812105 24.810059 24.812105 64.913429 0 89.723487l-74.113975 74.116021L560.836265 343.13529c38.579667-22.780843 82.300424-35.851533 128.305201-35.851533 67.832921 0 131.605364 26.460652 179.51349 74.432223 47.908126 47.844681 74.305333 111.553679 74.305333 179.324178C942.960289 628.936525 916.500661 692.707944 868.592534 740.551602L868.592534 740.551602zM778.930445 471.440491c-47.908126-48.035016-131.351584-48.225351-179.51349 0.127913-23.985274 23.858384-37.183877 55.649438-37.183877 89.470731 0 33.948183 13.198603 65.801658 37.311791 89.914846 23.921829 23.986297 55.712883 37.121456 89.597621 37.121456 33.821293 0.063445 65.675792-13.134135 89.662089-37.183877 23.985274-24.049742 37.247322-55.903218 37.247322-89.851401C816.050878 527.217842 802.852274 495.363344 778.930445 471.440491L778.930445 471.440491z"  horiz-adv-x="1024" />

    
    <glyph glyph-name="fangdajing" unicode="&#58984;" d="M882.65728 11.66336c-10.98752-10.84416-28.76928-10.84416-39.74144 0l-92.14464 89.93792c14.9248 11.3152 28.98944 23.63904 41.96352 37.04832l89.92256-87.73632C893.62432 40.07424 893.62432 22.49216 882.65728 11.66336L882.65728 11.66336zM508.12416 38.07232c-204.288 0-369.88416 163.6096-369.88416 365.3632 0 201.79968 165.59616 365.3632 369.88416 365.3632 204.26752 0 369.86368-163.56864 369.86368-365.3632C877.98272 201.68192 712.39168 38.07232 508.12416 38.07232L508.12416 38.07232zM508.12416 702.36672c-167.13728 0-302.63296-133.80608-302.63296-298.9312 0-165.07904 135.49568-298.94144 302.63296-298.94144s302.60736 133.8624 302.60736 298.94144C810.73152 568.56064 675.26144 702.36672 508.12416 702.36672L508.12416 702.36672z"  horiz-adv-x="1024" />

    
    <glyph glyph-name="jiangxu" unicode="&#58918;" d="M249.1392 262.5792l245.83168-307.29216a21.82144 21.82144 0 0 1 34.07872 0l245.83168 307.29216c11.43296 14.26944 1.23904 35.46112-17.03936 35.46112h-173.01504V770.77504a36.95616 36.95616 0 0 1-36.992 36.992H476.1856a37.00224 37.00224 0 0 1-36.992-36.992v-472.73472H266.17856c-18.35008 0-28.47232-21.19168-17.03936-35.46112z"  horiz-adv-x="1024" />

    
    <glyph glyph-name="icon" unicode="&#58898;" d="M560.097438 384L887.887996 711.791581c13.778818 13.767562 13.778818 36.111452 0 49.877991-13.778818 13.778818-36.100196 13.778818-49.877991 0L510.218424 433.877991 182.426843 761.669572c-13.778818 13.778818-36.100196 13.778818-49.877991 0-13.778818-13.767562-13.778818-36.111452 0-49.877991l327.791581-327.791581-327.791581-327.791581c-13.778818-13.767562-13.778818-36.111452 0-49.877991 6.888897-6.888897 15.914458-10.334369 24.938995-10.334369s18.050098 3.444449 24.938996 10.334369l327.791581 327.791581L838.010005 6.330428c6.888897-6.888897 15.914458-10.334369 24.938996-10.334369s18.050098 3.444449 24.938995 10.334369c13.778818 13.766538 13.778818 36.111452 0 49.877991L560.097438 384z"  horiz-adv-x="1024" />

    
    <glyph glyph-name="duihao" unicode="&#59061;" d="M511.454-61.754c-246.501 0-447.036 200.536-447.036 447.025 0 246.495 200.535 447.036 447.036 447.036S958.49 631.765 958.49 385.271c0-246.489-200.536-447.025-447.036-447.025z m0 842.79c-218.223 0-395.764-177.542-395.764-395.764s177.541-395.75 395.764-395.75 395.764 177.527 395.764 395.75-177.54 395.764-395.764 395.764zM438.475 211.16a25.62 25.62 0 0 0-18.126 7.518L271.888 367.146c-10.015 10-10.015 26.244 0 36.252 10.014 10.014 26.237 10.014 36.251 0L438.475 273.07l272.438 272.418c10.014 10.014 26.238 10.014 36.252 0 10.014-10.014 10.014-26.244 0-36.252L456.601 218.68a25.616 25.616 0 0 0-18.126-7.518z"  horiz-adv-x="1024" />

    
    <glyph glyph-name="zhongzhi" unicode="&#59101;" d="M126.041 383.44c12.791 0 23.264-9.993 24.064-22.784 2.478-40.773 11.832-80.346 27.661-117.92 18.227-43.01 44.29-81.704 77.467-114.881 33.177-33.178 71.871-59.24 114.881-77.467 44.53-18.867 91.858-28.381 140.704-28.381 48.767 0 96.095 9.513 140.704 28.381 43.011 18.228 81.704 44.289 114.881 77.467 33.178 33.177 59.24 71.871 77.467 114.881 18.787 44.61 28.301 91.937 28.301 140.704s-9.513 96.094-28.381 140.704c-18.227 43.01-44.29 81.704-77.467 114.881-33.178 33.178-71.871 59.24-114.882 77.467-44.529 18.867-91.857 28.381-140.704 28.381-58.68 0-116.88-14.39-168.365-41.492-31.018-16.309-59.559-37.334-84.662-61.877l93.936 16.708c13.911 2.478 27.181-6.795 29.66-20.706 2.478-13.91-6.796-27.181-20.706-29.659l-151.097-26.942c-13.91-2.478-27.181 6.795-29.66 20.706l-26.941 151.097c-2.478 13.91 6.795 27.181 20.706 29.659 13.91 2.479 27.181-6.795 29.659-20.706l16.069-90.338c29.58 29.82 63.557 55.083 100.572 74.589C378.349 776.771 444.304 793 510.738 793c55.322 0 108.966-10.873 159.411-32.218 48.767-20.626 92.577-50.126 130.151-87.78 37.575-37.654 67.154-81.384 87.78-130.151 21.425-50.446 32.298-104.089 32.298-159.411s-10.873-108.966-32.218-159.411c-20.626-48.767-50.126-92.577-87.78-130.151-37.654-37.574-81.384-67.234-130.151-87.86C619.704-15.327 566.06-26.2 510.818-26.2c-55.322 0-108.965 10.793-159.411 32.218-48.766 20.626-92.577 50.126-130.151 87.78-37.574 37.654-67.154 81.384-87.78 130.151-18.067 42.691-28.62 87.62-31.418 133.908-0.96 13.911 10.073 25.583 23.983 25.583z"  horiz-adv-x="1024" />

    
    <glyph glyph-name="tingyong" unicode="&#58950;" d="M410.624 586.752c-21.504 0-38.912-17.408-38.912-38.912v-309.76c0-21.504 17.408-38.912 38.912-38.912 21.504 0 38.912 17.408 38.912 38.912v309.76c0 20.992-17.408 38.912-38.912 38.912zM945.664 571.904c-23.04 54.784-56.32 104.448-98.816 146.944s-91.648 75.776-146.944 98.816c-56.32 24.064-116.736 36.352-179.2 36.352s-122.88-12.288-179.712-36.352c-54.784-23.04-104.448-56.32-146.944-98.816s-75.776-91.648-98.816-146.944c-24.064-56.832-36.352-117.248-36.352-179.712 0-62.464 12.288-122.88 36.352-179.712 23.04-54.784 56.32-104.448 98.816-146.944s91.648-75.776 146.944-98.816c56.832-24.064 117.248-36.352 179.712-36.352s122.88 12.288 179.712 36.352c54.784 23.04 104.448 56.32 146.944 98.816s75.776 91.648 98.816 146.944c24.064 56.832 36.352 117.248 36.352 179.712-0.512 62.464-12.8 122.88-36.864 179.712z m-58.88-333.824C866.816 190.976 838.144 148.48 801.792 111.616s-78.848-65.024-126.464-84.992c-49.152-20.48-100.864-31.232-154.624-31.232s-105.472 10.752-154.624 31.232c-47.104 19.968-89.6 48.64-126.464 84.992-36.352 36.352-65.024 78.848-84.992 126.464-20.48 49.152-31.232 100.864-31.232 154.624s10.752 105.472 31.232 154.624c19.968 47.104 48.64 89.6 84.992 126.464 36.352 36.352 78.848 65.024 126.464 84.992 49.152 20.48 100.864 31.232 154.624 31.232s105.472-10.752 154.624-31.232c47.104-19.968 89.6-48.64 126.464-84.992 36.352-36.352 65.024-78.848 84.992-126.464 20.48-49.152 31.232-100.864 31.232-154.624s-10.752-105.984-31.232-154.624zM630.784 586.752c-21.504 0-38.912-17.408-38.912-38.912v-309.76c0-21.504 17.408-38.912 38.912-38.912s38.912 17.408 38.912 38.912v309.76c0.512 20.992-16.896 38.912-38.912 38.912z"  horiz-adv-x="1024" />

    
    <glyph glyph-name="tiaozheng" unicode="&#58925;" d="M978.784 708.643H280.01c-19.171-58.357-74.015-98.372-136.437-98.372C64.407 610.271 0 674.322 0 753.055 0 831.874 64.407 896 143.573 896c62.241 0 117.08-39.95 136.407-98.216h698.804c24.663 0 44.729-19.995 44.729-44.563 0-24.578-20.066-44.578-44.729-44.578z m-781.091 44.578c0 29.658-24.276 53.794-54.121 53.794-14.573 0-28.256-5.683-38.533-16.01-10.111-10.156-15.648-23.558-15.583-37.734 0-29.724 24.276-53.864 54.116-53.864 29.845 0 54.121 24.141 54.121 53.814z m781.578-413.864h-92.809c-19.171-58.362-74.02-98.377-136.437-98.377s-117.266 40.015-136.442 98.377H48.91c-24.663 0-44.729 19.995-44.729 44.573 0 24.568 20.065 44.563 44.729 44.563h564.673c19.171 58.357 74.02 98.372 136.442 98.372s117.266-40.015 136.437-98.372h92.809c24.663 0 44.729-19.995 44.729-44.563 0-24.578-20.065-44.573-44.729-44.573z m-229.246 98.372c-29.844 0-54.121-24.136-54.121-53.799 0-29.673 24.276-53.819 54.121-53.819 29.839 0 54.116 24.146 54.116 53.819 0 29.663-24.277 53.799-54.116 53.799zM143.573 157.884c62.246 0 117.09-40.08 136.417-98.528h698.638c24.533 0 44.668-19.874 44.884-44.307v-0.106c0-24.578-20.065-44.573-44.729-44.573H280.01c-19.166-58.355-74.015-98.37-136.437-98.37C64.407-128 0-63.874 0 14.945s64.407 142.939 143.573 142.939z m-54.116-143.1c0-29.663 24.276-53.799 54.116-53.799 29.844 0 54.121 24.136 54.121 53.799 0 29.668-24.276 53.809-54.121 53.809-29.839 0-54.116-24.141-54.116-53.809z"  horiz-adv-x="1024" />

    
    <glyph glyph-name="tupian" unicode="&#58941;" d="M927.968 799.968H96A96 96 0 0 1 0 704v-639.968a96 96 0 0 1 96-96h831.968a96.032 96.032 0 0 1 96.032 96V704a96.064 96.064 0 0 1-96.032 95.968z m16-637.984l-200.832 267.808s-11.648 21.664-52.672 21.664c-46.528 0-60.512-20.992-60.512-20.992l-175.936-271.52s-9.568-18.176-33.056-18.176c-24.576 0-36.32 18.176-36.32 18.176l-92.512 105.76s-23.712 31.36-54.528 31.36c-30.656 0-56.16-34.752-56.16-34.752L80 134.784V686.816c0 17.664 14.336 32.032 32 32.032h800a32 32 0 0 0 32-32.032l-0.032-524.832zM463.904 511.968a113.312 113.312 0 1 0-226.656 0 113.312 113.312 0 0 0 226.656 0z"  horiz-adv-x="1024" />

    
    <glyph glyph-name="jianhao" unicode="&#58881;" d="M512-47.706c-58.701 0-115.659 11.502-169.293 34.188-51.792 21.906-98.299 53.261-138.231 93.194-39.932 39.931-71.288 86.441-93.194 138.231-22.685 53.634-34.188 110.592-34.188 169.293 0 58.7 11.502 115.658 34.188 169.293 21.906 51.792 53.261 98.3 93.194 138.231 39.932 39.932 86.441 71.288 138.231 93.194 53.634 22.686 110.592 34.188 169.293 34.188 58.7 0 115.658-11.502 169.293-34.188 51.792-21.906 98.3-53.26 138.232-93.194 39.932-39.932 71.288-86.441 93.192-138.231 22.686-53.634 34.188-110.592 34.188-169.293 0-58.701-11.502-115.659-34.188-169.293-21.905-51.791-53.26-98.3-93.192-138.231-39.932-39.932-86.441-71.288-138.232-93.194-53.635-22.686-110.593-34.188-169.293-34.188zM512 770.939c-102.5 0-198.866-39.916-271.345-112.395s-112.395-168.845-112.395-271.345c0-102.5 39.916-198.866 112.395-271.345s168.844-112.395 271.345-112.395 198.866 39.916 271.345 112.395 112.395 168.844 112.395 271.345c0 102.5-39.916 198.866-112.395 271.345s-168.844 112.395-271.345 112.395zM757.593 361.316h-491.187c-14.129 0-25.583 11.454-25.583 25.583s11.454 25.583 25.583 25.583h491.187c14.129 0 25.583-11.454 25.583-25.583s-11.455-25.583-25.583-25.583z"  horiz-adv-x="1024" />

    
    <glyph glyph-name="shanchu1" unicode="&#59395;" d="M445.732571 855.186286c-221.330286 0-400.822857-179.492571-400.822857-400.822857s179.492571-400.822857 400.822857-400.822858 400.822857 179.492571 400.822858 400.822858-179.492571 400.822857-400.822858 400.822857z m211.382858-430.08h-422.765715c-16.091429 0-29.257143 13.165714-29.257143 29.257143s13.165714 29.257143 29.257143 29.257142h422.765715c16.091429 0 29.257143-13.165714 29.257142-29.257142s-13.165714-29.257143-29.257142-29.257143z"  horiz-adv-x="1024" />

    
    <glyph glyph-name="bianmadingyi" unicode="&#58947;" d="M795.83744 608.23552c33.60256 0 61.11232-27.50976 61.11232-61.11232v-366.99648c0-33.60768-27.50464-61.11232-61.11232-61.11232H228.16256c-33.60768 0-61.11232 27.49952-61.11232 61.11232V547.01568c0 33.60256 27.50464 61.11232 61.11232 61.11232h567.66976v0.10752z m0 61.11232H228.16256c-67.42528 0-122.33216-54.90176-122.33216-122.33216v-366.99648c0-67.42528 54.90688-122.33216 122.33216-122.33216h567.66976c67.42528 0 122.33216 54.90688 122.33216 122.33216V547.01568c0 67.4304-54.90688 122.33216-122.32704 122.33216M507.1872 424.58112H278.5792c-16.91136 0-30.61248 14.12608-30.61248 31.03744 0 16.91136 13.70112 31.03744 30.61248 31.03744h228.608c16.90624 0 30.61248-14.12608 30.61248-31.03744-0.00512-16.91136-13.70624-31.03744-30.61248-31.03744z m239.3088-183.01952H278.57408c-16.91136 0-30.61248 13.5936-30.61248 30.51008 0 16.90624 13.70112 30.49984 30.61248 30.49984h467.8144c16.91136 0 30.60736-13.58848 30.60736-30.49984a30.43328 30.43328 0 0 0-30.336-30.51008h-0.16384z m-99.74784 244.77184h122.33216v-122.33216h-122.33216V486.33344z"  horiz-adv-x="1024" />

    
    <glyph glyph-name="jianhao1" unicode="&#58956;" d="M512-67.55555531000005c-248.88888844 0-455.11111125 202.66666687-455.11111125 455.11111125s202.66666687 455.11111125 455.11111125 455.11111031 455.11111125-202.66666687 455.11111125-455.11111031-206.22222188-455.11111125-455.11111125-455.11111125z m0 888.88888875c-241.7777775 0-433.7777775-195.55555594-433.7777775-433.7777775s195.55555594-433.7777775 433.7777775-433.77777844 433.7777775 195.55555594 433.7777775 433.77777844-192 433.7777775-433.7777775 433.7777775zM280.88888844 401.77777781h462.22222312v-35.55555562h-462.22222312z"  horiz-adv-x="1024" />

    
    <glyph glyph-name="shanchu" unicode="&#58959;" d="M424.377 101.467c16.02 0 29.127 13.107 29.127 29.127V543.229c0 16.02-13.107 29.127-29.127 29.127s-29.127-13.107-29.127-29.127v-412.635c0-16.02 13.107-29.127 29.127-29.127z m189.325 0c16.02 0 29.127 13.107 29.127 29.127V543.229c0 16.02-13.107 29.127-29.127 29.127s-29.127-13.107-29.127-29.127v-412.635c0-16.02 13.107-29.127 29.127-29.127zM865.166 689.471H568.555v46.967c0 20.025-16.384 36.409-36.409 36.409h-38.229c-20.025 0-36.409-16.384-36.409-36.409v-46.967H159.441c-16.02 0-29.127-13.107-29.127-29.127s13.107-29.127 29.127-29.127h42.598v-556.449c0-43.205 36.287-78.279 80.949-78.279H742.59c44.661 0 80.949 35.074 80.949 78.279V631.217h41.628c16.02 0 29.127 13.107 29.127 29.127s-13.107 29.127-29.127 29.127z m-99.76-614.704c0-10.801-10.437-20.025-22.695-20.025H283.109c-12.379 0-22.695 9.223-22.695 20.025V631.216h505.113v-556.449z"  horiz-adv-x="1024" />

    
    <glyph glyph-name="ccgl-shujuzidianxiugaijilu-5" unicode="&#58880;" d="M375.204 240.804l193.168 54.843-137.975 137.131-55.193-191.973zM891.13 616.435l-137.977 137.134-303.553-301.685 137.975-137.12 303.554 301.671zM850.922 108.617c0-47.649-38.641-86.307-86.305-86.307h-517.85c-47.677 0-86.308 38.658-86.308 86.307v517.851c0 47.677 38.631 86.307 86.308 86.307h345.232l86.309 86.309h-460.31c-79.453 0-143.846-64.394-143.846-143.847v-575.388c0-79.455 64.395-143.846 143.846-143.846h575.388c79.439 0 143.846 64.394 143.846 143.846v460.311l-86.31-86.309v-345.234zM955.258 731.628l-86.24 85.703c-14.288 14.203-38.224 13.429-53.466-1.713l-41.399-41.132 137.978-137.133 41.397 41.145c15.242 15.143 16.015 38.926 1.73 53.13z"  horiz-adv-x="1024" />

    
    <glyph glyph-name="add" unicode="&#59103;" d="M512 64a32 32 0 0 1 32 32v256h256a32 32 0 0 1 0 64h-256V672a32 32 0 0 1-64 0v-256H224a32 32 0 0 1 0-64h256v-256a32 32 0 0 1 32-32"  horiz-adv-x="1024" />

    
    <glyph glyph-name="bianji" unicode="&#58938;" d="M345.43 334.666c-0.615-0.796-1.252-1.638-1.525-2.64L295.822 155.74c-2.799-10.263 0.068-21.345 7.669-29.127 5.689-5.53 13.175-8.602 21.14-8.602 2.64 0 5.279 0.319 7.873 1.024l175.059 47.741c0.273 0 0.41-0.273 0.614-0.273 2.025 0 3.982 0.751 5.484 2.276l468.082 468.013c13.904 13.927 21.527 32.882 21.527 53.522 0 23.37-9.922 46.74-27.261 64.056l-44.215 44.283c-17.34 17.362-40.755 27.306-64.08 27.306-20.638 0-39.594-7.623-53.566-21.504L346.135 336.26c-0.5-0.433-0.342-1.092-0.706-1.593m590.53 347.955l-46.513-46.467-75.389 76.573 45.853 45.83c7.236 7.281 21.299 6.212 29.605-2.117l44.214-44.282c4.62-4.62 7.259-10.764 7.259-16.794 0-5.006-1.798-9.512-5.03-12.743M428.67 327.293l337.76 337.784 75.39-76.618-337.1-337.124-76.05 75.958zM367.14 190.35l24.393 89.612 65.104-65.104-89.498-24.508z m598.47 306.79c-17.726 0-32.267-14.404-32.335-32.358v-436.338c0-22.892-18.569-41.46-41.484-41.46H153.646c-22.87 0-41.552 18.568-41.552 41.46V740.625c0 22.892 18.66 41.506 41.552 41.506h475.409c17.794 0 32.267 14.473 32.267 32.29 0 17.795-14.473 32.268-32.267 32.268H148.73c-55.796 0-101.194-45.352-101.194-101.171v-722.012c0-55.819 45.398-101.148 101.194-101.148h747.953c55.819 0 101.194 45.33 101.194 101.148V464.964c-0.091 17.772-14.587 32.177-32.268 32.177"  horiz-adv-x="1024" />

    
    <glyph glyph-name="yonghu" unicode="&#58899;" d="M592.352-56.448h-179.68c-169.152 0-302.784 0-302.784 85.952V47.2c0 164.416 135.808 298.144 302.784 298.144h179.68c166.976 0 302.816-133.76 302.816-298.144v-17.696c0-85.952-140.32-85.952-302.816-85.952z m-98.816 424.544c-132.224 0-239.808 106.016-239.808 236.288S361.312 840.672 493.536 840.672s239.808-105.984 239.808-236.288S625.76 368.096 493.536 368.096z"  horiz-adv-x="1024" />

    
    <glyph glyph-name="huopinbianma" unicode="&#58921;" d="M168.448 241.92h683.52v-73.856H168.512V241.92z m0 221.568h342.144v-73.856H168.448V463.488z m704.64-516.224H149.632C84.8-52.736 32 3.328 32 72.32V707.008C32 776 84.8 832 149.568 832h723.584c64.768 0 117.568-56 117.568-124.992v-634.752c0-68.992-52.8-124.992-117.568-124.992zM148.928 759.04a50.56 50.56 0 0 1-49.792-51.2v-634.688c0-28.416 21.888-51.2 49.792-51.2H872.32a50.56 50.56 0 0 1 49.728 51.2V707.776c0 28.416-21.824 51.2-49.728 51.2H148.864z m498.944-147.776h137.152v-147.712h-137.152V611.2z"  horiz-adv-x="1024" />

    
    <glyph glyph-name="tingyong1" unicode="&#58895;" d="M547.234064516129 370.7870967741936c0 52.851612903225806 39.63870967741935 66.06451612903226 66.06451612903226 66.06451612903226 48.44799999999999 0 66.06451612903226-39.63870967741935 66.06451612903226-66.06451612903226 0-22.021161290322578-17.616516129032256-66.06451612903226-66.06451612903226-66.06451612903226-48.44696774193548 0-66.06451612903226 35.23406451612903-66.06451612903226 66.06451612903226z m114.51251612903225 0c0 13.212903225806452-4.404645161290323 26.425806451612903-13.212903225806452 35.23406451612903s-22.022193548387097 13.212903225806452-35.23509677419355 13.212903225806452-26.425806451612903-4.403612903225806-35.23406451612903-13.212903225806452S564.8516129032258 384 564.8516129032258 370.7870967741936s4.404645161290323-26.425806451612903 13.212903225806452-35.23406451612903 22.021161290322578-13.212903225806452 35.23406451612903-13.212903225806452 26.425806451612903 4.403612903225806 35.23509677419355 13.212903225806452c8.808258064516128 8.808258064516128 13.212903225806452 22.021161290322578 13.212903225806452 35.23406451612903zM758.6405161290322 480.8949677419355V463.2774193548387c-4.403612903225806 4.404645161290323-13.212903225806452 4.404645161290323-17.616516129032256 4.404645161290323s-8.809290322580646 0-8.809290322580646-4.404645161290323v-26.425806451612903h26.425806451612903v-17.617548387096775h-26.425806451612903v-105.70322580645161h-17.616516129032256v105.70322580645161H696.9806451612903V436.85161290322577h17.617548387096775v17.617548387096775c0 8.808258064516128 0 17.616516129032256 4.403612903225806 22.021161290322578s8.809290322580646 8.808258064516128 17.617548387096775 8.808258064516128 17.617548387096775-4.403612903225806 22.021161290322578-4.403612903225806zM833.5143225806451 480.8949677419355V463.2774193548387c-4.404645161290323 4.404645161290323-13.212903225806452 4.404645161290323-17.617548387096775 4.404645161290323s-8.808258064516128 0-8.808258064516128-4.404645161290323v-26.425806451612903h26.425806451612903v-17.617548387096775h-26.425806451612903v-105.70322580645161H789.4709677419355v105.70322580645161H776.258064516129V436.85161290322577h13.212903225806452v17.617548387096775c0 8.808258064516128 0 17.616516129032256 4.404645161290323 22.021161290322578s13.212903225806452 8.808258064516128 22.021161290322578 8.808258064516128c4.404645161290323 0 13.212903225806452-4.403612903225806 17.617548387096775-4.403612903225806zM688.1723870967742 604.2147096774194C811.4921290322582 604.2147096774194 908.3870967741935 507.32077419354835 908.3870967741935 384s-96.89496774193549-220.21470967741934-220.21470967741934-220.21470967741934H335.8276129032258C212.5078709677419 163.78529032258075 115.61290322580646 260.67922580645165 115.61290322580646 384s96.89496774193549 220.21470967741934 220.21470967741934 220.21470967741934h352.3447741935484m0 44.043354838709675H335.8276129032258c-145.34193548387097 0-264.258064516129-118.91612903225807-264.258064516129-264.258064516129s118.91612903225807-264.258064516129 264.258064516129-264.258064516129h352.3447741935484c145.34193548387097 0 264.258064516129 118.91612903225807 264.258064516129 264.258064516129s-118.91612903225807 264.258064516129-264.258064516129 264.258064516129zM331.424 516.1290322580645c74.87277419354838 0 132.1290322580645-57.256258064516125 132.1290322580645-132.1290322580645s-57.256258064516125-132.1290322580645-132.1290322580645-132.1290322580645-132.1290322580645 57.256258064516125-132.1290322580645 132.1290322580645 61.65987096774193 132.1290322580645 132.1290322580645 132.1290322580645m0 44.043354838709675C234.5290322580645 560.1723870967742 155.2516129032258 480.8949677419355 155.2516129032258 384s79.2774193548387-176.1723870967742 176.1723870967742-176.1723870967742S507.5953548387097 287.1050322580645 507.5953548387097 384s-79.2774193548387 176.1723870967742-176.17135483870968 176.1723870967742z"  horiz-adv-x="1024" />

    
    <glyph glyph-name="shangchuan" unicode="&#59174;" d="M546.43435 883.191897C538.230905 891.4624 525.333392 896 512.435878 896c-11.533998 0-25.772675-4.5376-33.976119-12.78575l-254.820895-256.631464a43.721901 43.721901 0 0 1-9.32108-47.812447 43.923075 43.923075 0 0 1 40.570169-26.957368l83.152081 0.670581-1.207046-364.080941a65.49344 65.49344 0 0 1 65.49344-65.247561h220.285958a65.49344 65.49344 0 0 1 65.448735 65.247561l-1.184694 363.99153 83.129729-0.603523a43.811312 43.811312 0 0 1 40.570168 26.957368 43.699548 43.699548 0 0 1-9.32108 47.812447L546.43435 883.191897zM948.69372 463.005654a65.828731 65.828731 0 0 1-65.873437-65.672262v-366.405624c0-15.155137-11.668115-27.203248-26.89031-27.203248H166.974744c-15.199843 0-27.695008 12.048111-27.695008 27.203248V397.355744c0 36.256096-28.656174 65.672262-64.934622 65.672262-36.256096 0-64.934623-29.393814-64.934623-65.672262V30.950121c0-87.577918 69.986335-158.927768 157.586606-158.927768h688.932876c87.622623 0 158.659536 71.34985 158.659536 158.927768V397.355744a65.895789 65.895789 0 0 1-65.895789 65.64991z"  horiz-adv-x="1024" />

    
    <glyph glyph-name="fenpeijiaose" unicode="&#58993;" d="M466.944 364.690286a231.862857 231.862857 0 1 0 0 463.725714 231.862857 231.862857 0 0 0 0-463.725714m0 529.846857A297.984 297.984 0 0 1 168.96 596.553143c0-111.542857 61.952-207.652571 152.722286-258.706286C155.794286 278.162286 36.571429 120.832 36.571429-65.609143c0-11.337143 2.486857-21.942857 3.364571-33.206857h0.731429a32.402286 32.402286 0 0 1 64.365714 0H106.057143c-0.950857 11.117714-3.291429 21.869714-3.291429 33.206857a364.105143 364.105143 0 0 0 364.178286 364.178286l33.133714 3.291428c148.699429 16.676571 264.777143 141.458286 264.777143 294.692572A297.984 297.984 0 0 1 467.017143 894.537143M921.6 43.739429c-1.974857 0.512-3.949714 1.170286-5.997714 1.170285H548.937143a24.649143 24.649143 0 0 1 0-49.371428h310.272l-83.456-81.92a23.844571 23.844571 0 0 1 0-34.011429c9.508571-9.508571 25.014857-9.508571 34.596571 0l125.074286 123.245714a24.283429 24.283429 0 0 1 0 34.377143 23.771429 23.771429 0 0 1-13.897143 6.509715M544.329143 120.393143a24.576 24.576 0 0 1 6.290286-0.804572h368.64a24.137143 24.137143 0 1 1 0 48.128H607.232L691.2 250.88a24.722286 24.722286 0 0 1 0 34.962286 24.502857 24.502857 0 0 1-34.742857 0l-125.805714-124.342857a24.429714 24.429714 0 0 1 0-34.669715c3.803429-3.876571 8.704-5.558857 13.677714-6.363428"  horiz-adv-x="1024" />

    


  </font>
</defs>
</svg>
